# xmcd
#
# Track frame offsets:
#	150
#	14247
#	49924
#	64035
#	85291
#	110946
#	125042
#	143437
#	158566
#	187236
#	207312
# Disc length: 3004 seconds
# Revision: 1
# Processed by: cddbd v1.5.2PL0 Copyright (c) Steve Scherf et al.
#
# Submitted via: libkcddb 0.31
#
DISCID=a70bba0b
DTITLE=Blue Stuff - Warning: Bluesaholics!
DYEAR=1998
DGENRE=Blues
TTITLE0=Hug And Squeeze
TTITLE1=Red House
TTITLE2=Tell Me
TTITLE3=Come On
TTITLE4=Second Hand Blues
TTITLE5=Mary Had A Little Lamb
TTITLE6=Reconsider Baby
TTITLE7=I'm Ready
TTITLE8=Stormy Monday
TTITLE9=The Thrill Is Gone
TTITLE10=All Your Love
EXTD=
EXTT0=
EXTT1=
EXTT2=
EXTT3=
EXTT4=
EXTT5=
EXTT6=
EXTT7=
EXTT8=
EXTT9=
EXTT10=
PLAYORDER=
